<?xml version="1.0" encoding="utf-8"?>
<!-- Generator: Adobe Illustrator 21.1.0, SVG Export Plug-In . SVG Version: 6.00 Build 0)  -->
<svg version="1.1" id="Warstwa_1" xmlns="http://www.w3.org/2000/svg" xmlns:xlink="http://www.w3.org/1999/xlink" x="0px" y="0px"
	 viewBox="0 0 1224.7 1080" style="enable-background:new 0 0 1224.7 1080;" xml:space="preserve">
<style type="text/css">
	
		.st0{fill-rule:evenodd;clip-rule:evenodd;fill:#756428;stroke:#544A22;stroke-width:0.24;stroke-linecap:round;stroke-linejoin:round;stroke-miterlimit:10;}
</style>
<g>
	<path class="st0" d="M536.1,892.7h-11.3v10h-7.4v-10H508v-5h9.4v-10.1h7.4v10.1h11.3V892.7z M566.1,892.7h-11.2v10h-7.5v-10H538v-5
		h9.4v-10.1h7.5v10.1h11.2V892.7z M532.4,844.2H521v10.1h-7.4v-10.1h-9.4v-6.6h9.4v-10.1h7.4v10.1h11.3V844.2z M562.3,844.2h-11.2
		v10.1h-7.5v-10.1h-9.4v-6.6h9.4v-10.1h7.5v10.1h11.2V844.2z M661.7,259.1h-11.2v8.4h-7.6v-8.4c-3.6,0-6.8-0.5-9.4-1.6
		c-2.5-1.2-3.1-2.2-1.8-3.4c1.3-1,4.9-1.6,11.2-1.6v-10.1h7.6v10.1h11.2V259.1z M658,210.7h-11.3v8.4h-7.4v-8.4
		c-3.8,0-6.9-0.6-9.4-1.7c-2.6-1-3.1-2.2-2-3.2c1.3-1.2,5.1-1.7,11.3-1.7v-10h7.4v10H658V210.7z M607.4,1018.1V616.9
		c-30.1-15.6-75-39.6-135-71.9h-420c0,159.4,70,288.6,210,387.9L223,737.3h33.7c23.7,78,61.2,142.1,112.5,192.2
		c62.5,59.1,136.2,88.6,221.2,88.6H607.4z M800.5,839.2c0-79.1-60.7-151.5-181.9-217.3v394.6c53.8-4.5,97.5-22.3,131.2-53.5
		C783.5,931.8,800.5,890.5,800.5,839.2z M534.2,50.1c-135,15.7-248.4,69.4-340.2,161.4C102.1,303.5,54.9,411.3,52.3,534.9h403.1
		C353,471.4,301.8,395.6,301.8,307.6c0-61.3,23-115.9,69.3-163.8C412.3,101.5,466.7,70.2,534.2,50.1z M1167.9,545.1h-358
		c102.5,64.7,153.8,141.5,153.8,230.7c0,104.7-58.2,184.5-174.3,239c111.2-33.4,202.1-93,272.8-178.9
		C1132.6,750.1,1167.9,653.1,1167.9,545.1z M607.4,436.4V73.6c-47.5,5.6-86.6,22.9-117.2,51.8c-30.6,29-46,65.2-46,108.7
		C444.2,307.6,498.6,375.1,607.4,436.4z M1167.9,534.9c-1.2-85.8-25.3-165.2-72.1-238.2c-46.9-72.9-109.6-131.2-188.4-174.6
		L896,307.6h-29.9c-17.4-74.6-39.3-129.3-65.6-163.8C763,97.1,708,73.6,635.5,73.6h-16.9V443c38.8,19,96.9,49.7,174.3,91.9H1167.9z
		 M1218.5,545.1h-43.1c0,117-40.9,220.9-122.8,311.7c-81.9,90.9-185.3,149.6-310.3,176.5c-40.1,13.4-81.2,22.3-123.8,26.7v20.1
		h-11.2v-18.5c-15,1.2-30.1,1.7-45,1.7c-111.2,0-207.4-25.7-288.6-77l-9.4-45C119.2,841,46.1,708.9,44.9,545.1H7.4v-10.1h37.5
		C47.4,389,103,272,211.7,183.9c96.3-78,228.1-128.2,395.7-150.5V0h11.2v33.4c16.3-2.2,31.9-3.2,46.9-3.2
		c88.8,0,170,18.9,243.7,56.8l-1.8,26.8c81.2,44.6,146,103.9,194,178c48.2,74.2,72.8,155.2,74.1,243.2h43.1V545.1z"/>
</g>
</svg>
